<?xml version="1.0" encoding="iso-8859-1"?>
<!-- Uploaded to: SVG Repo, www.svgrepo.com, Generator: SVG Repo Mixer Tools -->
<svg width="30px" height="30px" version="1.1" id="Layer_1" xmlns="http://www.w3.org/2000/svg" xmlns:xlink="http://www.w3.org/1999/xlink" 
	 viewBox="0 0 512 512" xml:space="preserve">
<rect y="57.332" width="512" height="397.336"/>
<circle style="fill:#E21B1B;" cx="44.192" cy="89.38" r="8.928"/>
<g style="opacity:0.7;">
	<circle style="fill:#FFFFFF;" cx="70.968" cy="89.38" r="8.928"/>
</g>
<g>
	<circle style="fill:#666666;" cx="97.736" cy="89.38" r="8.928"/>
	<polygon style="fill:#666666;" points="443.52,105.06 155.96,105.06 175.08,73.716 462.656,73.716 	"/>
</g>
<g>
	<path style="fill:#FFFFFF;" d="M195.2,82.396l1.856,7.128c0.408,1.56,0.8,3.008,1.048,4.456h0.096c0.312-1.416,0.8-2.92,1.24-4.424
		l2.296-7.16h2.144l2.168,7.008c0.52,1.672,0.928,3.16,1.248,4.576h0.088c0.28-1.536,0.64-3.048,1.08-4.544l2.008-7.04h2.52
		l-4.52,14.016h-2.312l-2.144-6.688c-0.488-1.6-0.896-2.952-1.248-4.616h-0.056c-0.336,1.568-0.76,3.12-1.28,4.64l-2.264,6.664
		h-2.312l-4.224-14.016H195.2z"/>
	<path style="fill:#FFFFFF;" d="M216.856,82.396l1.856,7.128c0.408,1.56,0.8,3.008,1.048,4.456h0.088
		c0.32-1.416,0.8-2.92,1.248-4.424l2.28-7.16h2.144l2.176,7.008c0.52,1.672,0.928,3.16,1.24,4.576h0.096
		c0.272-1.536,0.632-3.056,1.08-4.544l2.008-7.04h2.52l-4.52,14.016h-2.328l-2.144-6.688c-0.496-1.512-0.912-3.056-1.24-4.616
		h-0.064c-0.328,1.568-0.752,3.12-1.272,4.64l-2.264,6.664h-2.328l-4.232-14.016H216.856z"/>
	<path style="fill:#FFFFFF;" d="M238.488,82.396l1.856,7.128c0.408,1.56,0.8,3.008,1.048,4.456h0.088
		c0.32-1.416,0.8-2.92,1.248-4.424l2.28-7.16h2.144l2.176,7.008c0.52,1.672,0.928,3.16,1.24,4.576h0.096
		c0.272-1.536,0.632-3.056,1.08-4.544l2.008-7.04h2.52l-4.52,14.016h-2.328l-2.152-6.688c-0.496-1.512-0.912-3.056-1.24-4.616
		h-0.064c-0.328,1.568-0.752,3.12-1.272,4.64l-2.264,6.664h-2.328l-4.232-14.016H238.488z"/>
</g>
<g>
	<polygon style="fill:#666666;" points="0,423.58 82.856,423.58 113.944,454.66 0,454.66 	"/>
	<polygon style="fill:#666666;" points="512,423.58 429.144,423.58 398.056,454.66 512,454.66 	"/>
</g>
<g style="opacity:0.2;">
	<rect x="95.2" y="162.18" style="fill:#FFFFFF;" width="29.232" height="29.232"/>
</g>
<g style="opacity:0.2;">
	<rect x="153.68" y="162.18" style="fill:#FFFFFF;" width="29.232" height="29.232"/>
</g>
<g style="opacity:0.2;">
	<rect x="270.616" y="162.18" style="fill:#FFFFFF;" width="29.232" height="29.232"/>
</g>
<g style="opacity:0.2;">
	<rect x="329.12" y="162.18" style="fill:#FFFFFF;" width="29.232" height="29.232"/>
</g>
<g style="opacity:0.2;">
	<rect x="446.032" y="162.18" style="fill:#FFFFFF;" width="29.232" height="29.232"/>
</g>
<g style="opacity:0.2;">
	<rect x="36.728" y="220.652" style="fill:#FFFFFF;" width="29.232" height="29.232"/>
</g>
<g style="opacity:0.2;">
	<rect x="95.2" y="220.652" style="fill:#FFFFFF;" width="29.232" height="29.232"/>
</g>
<g style="opacity:0.2;">
	<rect x="212.144" y="220.652" style="fill:#FFFFFF;" width="29.232" height="29.232"/>
</g>
<g style="opacity:0.2;">
	<rect x="329.12" y="220.652" style="fill:#FFFFFF;" width="29.232" height="29.232"/>
</g>
<g style="opacity:0.2;">
	<rect x="387.6" y="220.652" style="fill:#FFFFFF;" width="29.232" height="29.232"/>
</g>
<g style="opacity:0.2;">
	<rect x="446.032" y="220.652" style="fill:#FFFFFF;" width="29.232" height="29.232"/>
</g>
<g style="opacity:0.2;">
	<rect x="36.728" y="279.116" style="fill:#FFFFFF;" width="29.232" height="29.232"/>
</g>
<g style="opacity:0.2;">
	<rect x="153.68" y="279.116" style="fill:#FFFFFF;" width="29.232" height="29.232"/>
</g>
<g style="opacity:0.2;">
	<rect x="212.144" y="279.116" style="fill:#FFFFFF;" width="29.232" height="29.232"/>
</g>
<g style="opacity:0.2;">
	<rect x="270.616" y="279.116" style="fill:#FFFFFF;" width="29.232" height="29.232"/>
</g>
<g style="opacity:0.2;">
	<polyline style="fill:#FFFFFF;" points="329.088,279.116 358.328,279.116 358.328,308.348 329.088,308.348 	"/>
</g>
<g style="opacity:0.2;">
	<rect x="387.6" y="279.116" style="fill:#FFFFFF;" width="29.232" height="29.232"/>
</g>
<g style="opacity:0.2;">
	<rect x="446.032" y="279.116" style="fill:#FFFFFF;" width="29.232" height="29.232"/>
</g>
<g style="opacity:0.2;">
	<rect x="36.728" y="337.596" style="fill:#FFFFFF;" width="29.232" height="29.232"/>
</g>
<g style="opacity:0.2;">
	<rect x="95.2" y="337.596" style="fill:#FFFFFF;" width="29.232" height="29.232"/>
</g>
<g style="opacity:0.2;">
	<rect x="212.144" y="337.596" style="fill:#FFFFFF;" width="29.232" height="29.232"/>
</g>
<g style="opacity:0.2;">
	<rect x="270.616" y="337.596" style="fill:#FFFFFF;" width="29.232" height="29.232"/>
</g>
<g style="opacity:0.2;">
	<rect x="329.12" y="337.596" style="fill:#FFFFFF;" width="29.232" height="29.232"/>
</g>
<g style="opacity:0.2;">
	<rect x="446.032" y="337.596" style="fill:#FFFFFF;" width="29.232" height="29.232"/>
</g>
<g>
	<path style="fill:#FFFFFF;" d="M81.4,259.724l119.288-55.416v26.344l-90.216,39.512v0.496l90.216,39.512v26.344L81.4,281.1V259.724
		z"/>
	<path style="fill:#FFFFFF;" d="M219.104,346.46l53.184-180.184h25.104L244.208,346.46H219.104z"/>
	<path style="fill:#FFFFFF;" d="M431.112,281.836l-119.288,54.68v-26.344L404,270.66v-0.496l-92.176-39.52v-26.328l119.288,54.68
		V281.836z"/>
</g>
</svg>